<?xml version="1.0" encoding="iso-8859-1"?>
<!-- Uploaded to: SVG Repo, www.svgrepo.com, Generator: SVG Repo Mixer Tools -->
<!DOCTYPE svg PUBLIC "-//W3C//DTD SVG 1.1//EN" "http://www.w3.org/Graphics/SVG/1.1/DTD/svg11.dtd">
<svg fill="#000000" version="1.1" id="Capa_1" xmlns="http://www.w3.org/2000/svg" xmlns:xlink="http://www.w3.org/1999/xlink" 
	 width="800px" height="800px" viewBox="0 0 568.775 568.775"
	 xml:space="preserve">
<g>
	<path d="M513.578,246.656c-31.002-19.708-99.422-34.023-167.335-40.755l25.886-94.649c3.481-12.728-4.016-25.876-16.753-29.357
		c-12.767-3.49-25.876,4.026-29.357,16.753l-28.372,103.734c-12.307-0.545-24.298-0.822-35.668-0.774
		c-0.43,0.009-0.803,0.009-1.233,0.009c-0.382,0.02-0.803,0.02-1.205,0.02c-50.71,0.65-97.662,7.707-136.725,19.221l-37.839,13.655
		c-11.705,5.135-22.291,10.72-31.403,16.754c-32.245,18.264-53.923,53.024-53.569,92.708c0.134,17.595,4.609,34.138,12.374,48.653
		c2.974,7.268,10.155,12.384,18.542,12.317l150.007-1.291c7.87-0.067,14.506-4.695,17.69-11.294l0.096-0.01
		c7.87-14.937,12.307-32.043,12.144-50.193c-0.095-12.192-2.247-23.906-6.148-34.778c18.284-1.979,37.332-3.137,56.916-3.414
		c2.209-0.01,5.049-0.01,8.252-0.02l-41.999,153.574c-3.481,12.728,4.016,25.876,16.753,29.356c2.113,0.584,4.227,0.861,6.312,0.861
		c10.519,0,20.138-6.98,23.045-17.614l45.412-166.034c18.446,0.182,35.841,0.555,44.064,1.291
		c-3.729,10.949-5.719,22.692-5.613,34.884c0.162,18.159,4.877,35.171,13.053,49.965l0.038,0.019
		c3.299,6.541,10.117,11.055,17.93,10.987l149.988-1.301c8.405-0.076,15.51-5.307,18.359-12.642
		c7.487-14.63,11.686-31.269,11.552-48.835C568.409,298.771,546.129,264.394,513.578,246.656z"/>
</g>
</svg>