<?xml version="1.0" encoding="iso-8859-1"?>
<!-- Uploaded to: SVG Repo, www.svgrepo.com, Generator: SVG Repo Mixer Tools -->
<svg height="800px" width="800px" version="1.1" id="Layer_1" xmlns="http://www.w3.org/2000/svg" xmlns:xlink="http://www.w3.org/1999/xlink" 
	 viewBox="0 0 512 512" xml:space="preserve">
<g transform="translate(1 1)">
	<path style="fill:#1CD759;" d="M445.187,185.88l-115.2-115.2c-19.627-19.627-52.053-19.627-72.533,0l-29.867,30.72
		c6.827,12.8,10.24,27.307,10.24,42.667c0,15.36-3.413,29.013-10.24,41.813L335.96,294.253c19.627,19.627,52.053,19.627,72.533,0
		l35.84-35.84C464.813,237.933,464.813,205.507,445.187,185.88"/>
	<g>
		<path style="fill:#FFDD09;" d="M323.16,109.933c0,14.507-11.093,25.6-25.6,25.6c-14.507,0-25.6-11.093-25.6-25.6
			s11.093-25.6,25.6-25.6C312.067,84.333,323.16,95.427,323.16,109.933"/>
		<path style="fill:#FFDD09;" d="M420.44,233.667l-35.84,35.84c-6.827,6.827-17.067,6.827-23.893,0L300.12,208.92
			c-6.827-6.827-6.827-17.067,0-23.893l35.84-35.84c6.827-6.827,17.067-6.827,23.893,0l60.587,60.587
			C427.267,216.6,427.267,226.84,420.44,233.667"/>
		<path style="fill:#FFDD09;" d="M143.96,237.933c-15.36,0-29.867-3.413-42.667-10.24v87.04L118.36,331.8l-17.067,17.067
			l17.067,17.067L101.293,383l17.067,17.067l-17.067,17.067L118.36,434.2l-17.067,17.067l17.067,17.067L101.293,485.4l17.067,17.067
			h34.133V237.08C149.933,237.933,146.52,237.933,143.96,237.933"/>
	</g>
	<path style="fill:#FD9808;" d="M152.493,237.08v265.387l34.133-51.2V227.693C176.387,232.813,164.44,236.227,152.493,237.08"/>
	<path style="fill:#FFDD09;" d="M237.827,144.067c0,52.053-41.813,93.867-93.867,93.867s-93.867-41.813-93.867-93.867
		S91.907,50.2,143.96,50.2S237.827,92.013,237.827,144.067"/>
	<path style="fill:#FD9808;" d="M169.56,109.933c0,14.507-11.093,25.6-25.6,25.6s-25.6-11.093-25.6-25.6s11.093-25.6,25.6-25.6
		S169.56,95.427,169.56,109.933"/>
	<path d="M143.96,246.467c-56.32,0-102.4-46.08-102.4-102.4s46.08-102.4,102.4-102.4s102.4,46.08,102.4,102.4
		S200.28,246.467,143.96,246.467z M143.96,58.733c-46.933,0-85.333,38.4-85.333,85.333s38.4,85.333,85.333,85.333
		s85.333-38.4,85.333-85.333S190.893,58.733,143.96,58.733z"/>
	<path d="M143.96,144.067c-18.773,0-34.133-15.36-34.133-34.133S125.187,75.8,143.96,75.8s34.133,15.36,34.133,34.133
		S162.733,144.067,143.96,144.067z M143.96,92.867c-9.387,0-17.067,7.68-17.067,17.067S134.573,127,143.96,127
		s17.067-7.68,17.067-17.067S153.347,92.867,143.96,92.867z"/>
	<path d="M152.493,511c-0.853,0-1.707,0-2.56,0c-3.413-0.853-5.973-4.267-5.973-8.533V237.933c0-4.267,3.413-7.68,7.68-8.533
		c11.093-0.853,21.333-4.267,30.72-9.387c2.56-1.707,5.973-0.853,8.533,0c2.56,1.707,4.267,4.267,4.267,7.68v223.573
		c0,1.707-0.853,3.413-1.707,5.12l-34.133,51.2C158.467,509.293,155.053,511,152.493,511z M161.027,244.76v229.547l17.067-25.6
		V240.493C172.973,242.2,167,243.907,161.027,244.76z"/>
	<path d="M152.493,511H118.36c-2.56,0-4.267-0.853-5.973-2.56L95.32,491.373c-3.413-3.413-3.413-8.533,0-11.947l11.093-11.093
		L95.32,457.24c-3.413-3.413-3.413-8.533,0-11.947l11.093-11.093L95.32,423.107c-1.707-1.707-2.56-3.413-2.56-5.973
		s0.853-4.267,2.56-5.973l11.093-11.093L95.32,388.973c-3.413-3.413-3.413-8.533,0-11.947l11.093-11.093L95.32,354.84
		c-3.413-3.413-3.413-8.533,0-11.947l11.093-11.093L95.32,320.707c-1.707-1.707-2.56-3.413-2.56-5.973v-87.04
		c0-2.56,1.707-5.973,4.267-7.68c2.56-1.707,5.973-1.707,8.533,0c14.507,7.68,30.72,10.24,46.933,9.387
		c2.56,0,5.12,0.853,6.827,2.56s2.56,4.267,2.56,5.973v264.533C161.027,507.587,157.613,511,152.493,511z M121.773,493.933h22.187
		V246.467c-11.947,0-23.04-1.707-34.133-5.973v70.827l14.507,14.507c1.707,1.707,2.56,3.413,2.56,5.973s-0.853,4.267-2.56,5.973
		l-11.093,11.093l11.093,11.093c3.413,3.413,3.413,8.533,0,11.947L113.24,383l11.093,11.093c3.413,3.413,3.413,8.533,0,11.947
		l-11.093,11.093l11.093,11.093c1.707,1.707,2.56,3.413,2.56,5.973s-0.853,4.267-2.56,5.973l-11.093,11.093l11.093,11.093
		c3.413,3.413,3.413,8.533,0,11.947L113.24,485.4L121.773,493.933z"/>
	<path d="M297.56,144.067c-18.773,0-34.133-15.36-34.133-34.133S278.787,75.8,297.56,75.8c18.773,0,34.133,15.36,34.133,34.133
		S316.333,144.067,297.56,144.067z M297.56,92.867c-9.387,0-17.067,7.68-17.067,17.067S288.173,127,297.56,127
		c9.387,0,17.067-7.68,17.067-17.067S306.947,92.867,297.56,92.867z"/>
	<path d="M297.56,101.4c-5.12,0-8.533-3.413-8.533-8.533c0-36.693-21.333-76.8-68.267-76.8s-68.267,40.107-68.267,76.8
		c0,5.12-3.413,8.533-8.533,8.533c-5.12,0-8.533-3.413-8.533-8.533C135.427,45.933,164.44-1,220.76-1s85.333,46.933,85.333,93.867
		C306.093,97.987,302.68,101.4,297.56,101.4z"/>
	<path d="M372.653,283.16c-6.827,0-12.8-2.56-17.92-7.68l-60.587-60.587c-5.12-5.12-7.68-11.093-7.68-17.92
		c0-6.827,2.56-13.653,7.68-17.92l35.84-35.84c9.387-9.387,26.453-9.387,35.84,0l60.587,60.587c5.12,5.12,7.68,11.093,7.68,17.92
		c0,6.827-2.56,13.653-7.68,17.92l-35.84,35.84C385.453,280.6,378.627,283.16,372.653,283.16z M347.907,152.6
		c-2.56,0-4.267,0.853-5.973,2.56l-35.84,36.693c-1.707,1.707-2.56,3.413-2.56,5.973c0,2.56,0.853,4.267,2.56,5.973l60.587,60.587
		c3.413,3.413,8.533,3.413,11.947,0l35.84-35.84c1.707-1.707,2.56-3.413,2.56-5.973s-0.853-4.267-2.56-5.973l-60.587-60.587
		C353.027,153.453,350.467,152.6,347.907,152.6z"/>
	<path d="M378.627,236.227c-2.56,0-4.267-0.853-5.973-2.56l-35.84-35.84c-3.413-3.413-3.413-8.533,0-11.947
		c3.413-3.413,8.533-3.413,11.947,0l35.84,35.84c3.413,3.413,3.413,8.533,0,11.947C382.893,235.373,380.333,236.227,378.627,236.227
		z"/>
	<path d="M372.653,317.293c-15.36,0-30.72-5.973-41.813-17.067L221.613,191.853c-2.56-2.56-3.413-6.827-1.707-10.24
		c5.973-11.947,9.387-24.747,9.387-38.4s-3.413-26.453-9.387-39.253c-1.707-3.413-0.853-7.68,1.707-10.24l29.867-29.867
		c23.04-23.04,61.44-23.04,84.48,0l115.2,115.2l0,0c23.04,23.04,23.04,61.44,0,84.48l-35.84,35.84
		C403.373,312.173,388.013,317.293,372.653,317.293z M237.827,184.173L341.933,288.28c16.213,16.213,43.52,16.213,60.587,0
		l35.84-35.84c7.68-7.68,12.8-18.773,12.8-29.867s-4.267-22.187-12.8-29.867L324.013,76.653c-16.213-16.213-43.52-16.213-60.587,0
		l-25.6,25.6c5.973,12.8,8.533,26.453,8.533,40.96C246.36,157.72,243.8,171.373,237.827,184.173z"/>
</g>
</svg>